<?xml version="1.0" encoding="UTF-8" standalone="no"?>
<svg
   xmlns:osb="http://www.openswatchbook.org/uri/2009/osb"
   xmlns:dc="http://purl.org/dc/elements/1.1/"
   xmlns:cc="http://creativecommons.org/ns#"
   xmlns:rdf="http://www.w3.org/1999/02/22-rdf-syntax-ns#"
   xmlns:svg="http://www.w3.org/2000/svg"
   xmlns="http://www.w3.org/2000/svg"
   xmlns:sodipodi="http://sodipodi.sourceforge.net/DTD/sodipodi-0.dtd"
   xmlns:inkscape="http://www.inkscape.org/namespaces/inkscape"
   sodipodi:docname="viewitem.svg"
   inkscape:version="1.0 (4035a4fb49, 2020-05-01)"
   width="32.080002"
   height="90.629997"
   viewBox="0 0 32.080002 90.63"
   version="1.0"
   id="svg7080">
  <sodipodi:namedview
     inkscape:document-rotation="0"
     inkscape:guide-bbox="true"
     showguides="true"
     fit-margin-bottom="5"
     fit-margin-right="5"
     fit-margin-left="5"
     fit-margin-top="5"
     inkscape:showpageshadow="false"
     inkscape:window-maximized="1"
     inkscape:window-y="0"
     inkscape:window-x="0"
     inkscape:pagecheckerboard="false"
     inkscape:current-layer="svg7080"
     inkscape:cy="57.304353"
     inkscape:cx="-18.681483"
     inkscape:zoom="5.453125"
     showgrid="false"
     id="namedview28"
     inkscape:window-height="1022"
     inkscape:window-width="1920"
     inkscape:pageshadow="2"
     inkscape:pageopacity="0"
     guidetolerance="10"
     gridtolerance="10"
     objecttolerance="10"
     borderopacity="1"
     bordercolor="#666666"
     pagecolor="#ffffff" />
  <defs
     id="defs7082">
    <linearGradient
       osb:paint="solid"
       id="selected">
      <stop
         id="stop1138"
         offset="0"
         style="stop-color:#171717;stop-opacity:0.6682;" />
    </linearGradient>
    <style
       id="current-color-scheme"
       type="text/css">
      </style>
    <linearGradient
       osb:paint="solid"
       id="fill">
      <stop
         id="stop1075"
         offset="0"
         style="stop-color:#ffffff;stop-opacity:0.09130435;" />
    </linearGradient>
  </defs>
  <metadata
     id="metadata7085">
    <rdf:RDF>
      <cc:Work
         rdf:about="">
        <dc:format>image/svg+xml</dc:format>
        <dc:type
           rdf:resource="http://purl.org/dc/dcmitype/StillImage" />
        <dc:title />
      </cc:Work>
    </rdf:RDF>
  </metadata>
  <rect
     y="35.970001"
     x="8.0799999"
     height="16"
     width="16"
     id="hover-center"
     style="opacity:0.2;fill:#2e75bc;fill-opacity:1;stroke:none;stroke-width:0.31999999" />
  <rect
     transform="rotate(90)"
     style="opacity:0.2;fill:#2e75bc;fill-opacity:1;stroke:none;stroke-width:0.13860001"
     id="hover-right"
     width="16"
     height="3"
     x="35.970001"
     y="-27.08" />
  <path
     style="opacity:0.2;fill:#2e75bc;fill-opacity:1;fill-rule:nonzero;stroke:none;stroke-width:0.2304;stroke-linecap:square;stroke-linejoin:round;stroke-miterlimit:4;stroke-dasharray:none;stroke-dashoffset:0;stroke-opacity:1"
     d="m 24.08,32.97 c 2.97,0 2.97,0 2.97,2.97 0,0 0,0 0,0 h -2.94 c 0,0 0,0 0,0 v -2.95 c 0,0 0,0 0,0 z"
     id="hover-topright"
     inkscape:connector-curvature="0"
     sodipodi:nodetypes="ccssssc" />
  <rect
     y="-8.0799999"
     x="35.970001"
     height="3"
     width="16"
     id="hover-left"
     class="ColorScheme-Highlight"
     style="fill:#2e75bc;fill-opacity:1;stroke:none;stroke-width:0.13860001;opacity:0.2"
     transform="rotate(90)" />
  <rect
     y="-35.970001"
     x="-24.08"
     height="3"
     width="16"
     id="hover-top"
     style="opacity:0.2;fill:#2e75bc;fill-opacity:1;stroke:none;stroke-width:0.13860001"
     transform="scale(-1)" />
  <rect
     transform="scale(-1)"
     style="opacity:0.2;fill:#2e75bc;fill-opacity:1;stroke:none;stroke-width:0.13860001"
     id="hover-bottom"
     width="16"
     height="3"
     x="-24.08"
     y="-54.970001" />
  <path
     sodipodi:nodetypes="ccssssc"
     inkscape:connector-curvature="0"
     id="hover-topleft"
     d="m 8.08,32.97 c -2.97,0 -2.97,0 -2.97,2.97 0,0 0,0 0,0 h 2.94 c 0,0 0,0 0,0 v -2.95 c 0,0 0,0 0,0 z"
     class="ColorScheme-Highlight"
     style="opacity:0.2;fill:#2e75bc;fill-opacity:1;fill-rule:nonzero;stroke:none;stroke-width:0.2304;stroke-linecap:square;stroke-linejoin:round;stroke-miterlimit:4;stroke-dasharray:none;stroke-dashoffset:0;stroke-opacity:1" />
  <path
     style="opacity:0.2;fill:#2e75bc;fill-opacity:1;fill-rule:nonzero;stroke:none;stroke-width:0.2304;stroke-linecap:square;stroke-linejoin:round;stroke-miterlimit:4;stroke-dasharray:none;stroke-dashoffset:0;stroke-opacity:1"
     class="ColorScheme-Highlight"
     d="m 8.08,54.97 c -2.97,0 -2.97,0 -2.97,-2.98 0,0 0,0 0,0 h 2.94 c 0,0 0,0 0,0 v 2.95 c 0,0 0,0 0,0 z"
     id="hover-bottomleft"
     inkscape:connector-curvature="0"
     sodipodi:nodetypes="ccssssc" />
  <path
     sodipodi:nodetypes="ccssssc"
     inkscape:connector-curvature="0"
     id="hover-bottomright"
     d="m 24.08,54.97 c 2.97,0 2.97,0 2.97,-2.98 0,0 0,0 0,0 h -2.94 c 0,0 0,0 0,0 v 2.95 c 0,0 0,0 0,0 z"
     style="opacity:0.2;fill:#2e75bc;fill-opacity:1;fill-rule:nonzero;stroke:none;stroke-width:0.2304;stroke-linecap:square;stroke-linejoin:round;stroke-miterlimit:4;stroke-dasharray:none;stroke-dashoffset:0;stroke-opacity:1" />
  <rect
     style="opacity:0.2;fill:#2e75bc;fill-opacity:1;stroke:none;stroke-width:0.31999999"
     id="normal-center"
     width="16"
     height="16"
     x="8"
     y="8" />
  <rect
     y="-27"
     x="8"
     height="3"
     width="16"
     id="normal-right"
     style="opacity:0.2;fill:#2e75bc;fill-opacity:1;stroke:none;stroke-width:0.13860001"
     transform="rotate(90)" />
  <path
     sodipodi:nodetypes="ccssssc"
     inkscape:connector-curvature="0"
     id="normal-topright"
     d="m 24,5 c 2.96,0 2.97,0 2.97,2.97 0,0 0,0 0,0 h -2.94 c 0,0 0,0 0,0 V 5.03 c 0,0 0,0 0,0 z"
     style="opacity:0.2;fill:#2e75bc;fill-opacity:1;fill-rule:nonzero;stroke:none;stroke-width:0.2304;stroke-linecap:square;stroke-linejoin:round;stroke-miterlimit:4;stroke-dasharray:none;stroke-dashoffset:0;stroke-opacity:1" />
  <rect
     transform="rotate(90)"
     style="fill:#2e75bc;fill-opacity:1;stroke:none;stroke-width:0.13860001;opacity:0.2"
     class="ColorScheme-Highlight"
     id="normal-left"
     width="16"
     height="3"
     x="8"
     y="-8" />
  <rect
     transform="scale(-1)"
     style="opacity:0.2;fill:#2e75bc;fill-opacity:1;stroke:none;stroke-width:0.13860001"
     id="normal-top"
     width="16"
     height="3"
     x="-24"
     y="-8" />
  <rect
     y="-27"
     x="-24"
     height="3"
     width="16"
     id="normal-bottom"
     style="opacity:0.2;fill:#2e75bc;fill-opacity:1;stroke:none;stroke-width:0.13860001"
     transform="scale(-1)" />
  <path
     style="opacity:0.2;fill:#2e75bc;fill-opacity:1;fill-rule:nonzero;stroke:none;stroke-width:0.2304;stroke-linecap:square;stroke-linejoin:round;stroke-miterlimit:4;stroke-dasharray:none;stroke-dashoffset:0;stroke-opacity:1"
     class="ColorScheme-Highlight"
     d="M 8,5 C 5.03,5 5.02,5 5.02,7.97 c 0,0 0,0 0,0 h 2.95 c 0,0 0,0 0,0 V 5.03 c 0,0 0,0 0,0 z"
     id="normal-topleft"
     inkscape:connector-curvature="0"
     sodipodi:nodetypes="ccssssc" />
  <path
     sodipodi:nodetypes="ccssssc"
     inkscape:connector-curvature="0"
     id="normal-bottomleft"
     d="m 8,27 c -2.97,0 -2.98,0 -2.98,-2.97 0,0 0,0 0,0 h 2.95 c 0,0 0,0 0,0 v 2.94 c 0,0 0,0 0,0 z"
     class="ColorScheme-Highlight"
     style="opacity:0.2;fill:#2e75bc;fill-opacity:1;fill-rule:nonzero;stroke:none;stroke-width:0.2304;stroke-linecap:square;stroke-linejoin:round;stroke-miterlimit:4;stroke-dasharray:none;stroke-dashoffset:0;stroke-opacity:1" />
  <path
     style="opacity:0.2;fill:#2e75bc;fill-opacity:1;fill-rule:nonzero;stroke:none;stroke-width:0.2304;stroke-linecap:square;stroke-linejoin:round;stroke-miterlimit:4;stroke-dasharray:none;stroke-dashoffset:0;stroke-opacity:1"
     d="m 24,27 c 2.96,0 2.97,0 2.97,-2.97 0,0 0,0 0,0 h -2.94 c 0,0 0,0 0,0 v 2.94 c 0,0 0,0 0,0 z"
     id="normal-bottomright"
     inkscape:connector-curvature="0"
     sodipodi:nodetypes="ccssssc" />
  <rect
     style="opacity:0.2;fill:#2e75bc;fill-opacity:1;stroke:none;stroke-width:0.31999999"
     id="selected-center"
     width="16"
     height="16"
     x="8"
     y="66.629997" />
  <rect
     y="-27"
     x="66.629997"
     height="3"
     width="16"
     id="selected-right"
     style="opacity:0.2;fill:#2e75bc;fill-opacity:1;stroke:none;stroke-width:0.13860001"
     transform="rotate(90)" />
  <path
     sodipodi:nodetypes="ccssssc"
     inkscape:connector-curvature="0"
     id="selected-topright"
     d="m 24,63.63 c 2.96,0 2.97,0 2.97,2.98 0,0 0,0 0,0 h -2.94 c 0,0 0,0 0,0 v -2.95 c 0,0 0,0 0,0 z"
     style="opacity:0.2;fill:#2e75bc;fill-opacity:1;fill-rule:nonzero;stroke:none;stroke-width:0.2304;stroke-linecap:square;stroke-linejoin:round;stroke-miterlimit:4;stroke-dasharray:none;stroke-dashoffset:0;stroke-opacity:1" />
  <rect
     transform="rotate(90)"
     style="fill:#2e75bc;fill-opacity:1;stroke:none;stroke-width:0.13860001;opacity:0.2"
     class="ColorScheme-Highlight"
     id="selected-left"
     width="16"
     height="3"
     x="66.629997"
     y="-8" />
  <rect
     transform="scale(-1)"
     style="opacity:0.2;fill:#2e75bc;fill-opacity:1;stroke:none;stroke-width:0.13860001"
     id="selected-top"
     width="16"
     height="3"
     x="-24"
     y="-66.629997" />
  <rect
     y="-85.629997"
     x="-24"
     height="3"
     width="16"
     id="selected-bottom"
     style="opacity:0.2;fill:#2e75bc;fill-opacity:1;stroke:none;stroke-width:0.13860001"
     transform="scale(-1)" />
  <path
     style="opacity:0.2;fill:#2e75bc;fill-opacity:1;fill-rule:nonzero;stroke:none;stroke-width:0.2304;stroke-linecap:square;stroke-linejoin:round;stroke-miterlimit:4;stroke-dasharray:none;stroke-dashoffset:0;stroke-opacity:1"
     class="ColorScheme-Highlight"
     d="m 8,63.63 c -2.97,0 -2.98,0 -2.98,2.98 0,0 0,0 0,0 h 2.95 c 0,0 0,0 0,0 v -2.95 c 0,0 0,0 0,0 z"
     id="selected-topleft"
     inkscape:connector-curvature="0"
     sodipodi:nodetypes="ccssssc" />
  <path
     sodipodi:nodetypes="ccssssc"
     inkscape:connector-curvature="0"
     id="selected-bottomleft"
     d="m 8,85.63 c -2.97,0 -2.98,0 -2.98,-2.97 0,0 0,0 0,0 h 2.95 c 0,0 0,0 0,0 v 2.95 c 0,0 0,0 0,0 z"
     class="ColorScheme-Highlight"
     style="opacity:0.2;fill:#2e75bc;fill-opacity:1;fill-rule:nonzero;stroke:none;stroke-width:0.2304;stroke-linecap:square;stroke-linejoin:round;stroke-miterlimit:4;stroke-dasharray:none;stroke-dashoffset:0;stroke-opacity:1" />
  <path
     style="opacity:0.2;fill:#2e75bc;fill-opacity:1;fill-rule:nonzero;stroke:none;stroke-width:0.2304;stroke-linecap:square;stroke-linejoin:round;stroke-miterlimit:4;stroke-dasharray:none;stroke-dashoffset:0;stroke-opacity:1"
     d="m 24,85.63 c 2.96,0 2.97,0 2.97,-2.97 0,0 0,0 0,0 h -2.94 c 0,0 0,0 0,0 v 2.95 c 0,0 0,0 0,0 z"
     id="selected-bottomright"
     inkscape:connector-curvature="0"
     sodipodi:nodetypes="ccssssc" />
</svg>
